HIERARCHY
ROOT joint_Root
{
  OFFSET 0 0 0
  CHANNELS 6 Xposition Yposition Zposition Zrotation Xrotation Yrotation
  JOINT Hips
  {
    OFFSET 0.847027 93.984 -452.225
    CHANNELS 6 Xposition Yposition Zposition Zrotation Xrotation Yrotation
    JOINT Spine
    {
      OFFSET 15.7357 0 0
      CHANNELS 6 Xposition Yposition Zposition Zrotation Xrotation Yrotation
      JOINT Chest
      {
        OFFSET 8.98455 -0.406207 0
        CHANNELS 6 Xposition Yposition Zposition Zrotation Xrotation Yrotation
        JOINT Neck
        {
          OFFSET 16.3773 0 0
          CHANNELS 6 Xposition Yposition Zposition Zrotation Xrotation Yrotation
          JOINT Head
          {
            OFFSET 6.45672 0 0
            CHANNELS 6 Xposition Yposition Zposition Zrotation Xrotation Yrotation
            End Site
            {
              OFFSET 0 0 0
            }
          }
        }
        JOINT Shoulder_L
        {
          OFFSET 12.9942 -0.242716 4.98039
          CHANNELS 6 Xposition Yposition Zposition Zrotation Xrotation Yrotation
          JOINT UpperArm_L
          {
            OFFSET 5.34809 0 0
            CHANNELS 6 Xposition Yposition Zposition Zrotation Xrotation Yrotation
            JOINT LowerArm_L
            {
              OFFSET 24.3286 1.87007e-05 0
              CHANNELS 6 Xposition Yposition Zposition Zrotation Xrotation Yrotation
              JOINT Hand_L
              {
                OFFSET 22.2916 0 0
                CHANNELS 6 Xposition Yposition Zposition Zrotation Xrotation Yrotation
                End Site
                {
                  OFFSET 0 0 0
                }
              }
            }
          }
        }
        JOINT Shoulder_R
        {
          OFFSET 12.9945 -0.242716 -4.98039
          CHANNELS 6 Xposition Yposition Zposition Zrotation Xrotation Yrotation
          JOINT UpperArm_R
          {
            OFFSET -5.34813 0 0
            CHANNELS 6 Xposition Yposition Zposition Zrotation Xrotation Yrotation
            JOINT LowerArm_R
            {
              OFFSET -24.3289 0.000322201 0
              CHANNELS 6 Xposition Yposition Zposition Zrotation Xrotation Yrotation
              JOINT Hand_R
              {
                OFFSET -22.2915 -0.000108084 0
                CHANNELS 6 Xposition Yposition Zposition Zrotation Xrotation Yrotation
                End Site
                {
                  OFFSET 0 0 0
                }
              }
            }
          }
        }
      }
    }
    JOINT UpperLeg_L
    {
      OFFSET -2.19248 -6.46944 0
      CHANNELS 6 Xposition Yposition Zposition Zrotation Xrotation Yrotation
      JOINT LowerLeg_L
      {
        OFFSET 39.0811 0 -1.23785e-05
        CHANNELS 6 Xposition Yposition Zposition Zrotation Xrotation Yrotation
        JOINT Foot_L
        {
          OFFSET 40.9854 0 -1.26872e-05
          CHANNELS 6 Xposition Yposition Zposition Zrotation Xrotation Yrotation
          JOINT Toes_L
          {
            OFFSET 11.7543 0 0
            CHANNELS 6 Xposition Yposition Zposition Zrotation Xrotation Yrotation
            End Site
            {
              OFFSET 0 0 0
            }
          }
        }
      }
    }
    JOINT UpperLeg_R
    {
      OFFSET -2.19251 6.46944 0
      CHANNELS 6 Xposition Yposition Zposition Zrotation Xrotation Yrotation
      JOINT LowerLeg_R
      {
        OFFSET -39.0811 -0.00228153 -0.0401928
        CHANNELS 6 Xposition Yposition Zposition Zrotation Xrotation Yrotation
        JOINT Foot_R
        {
          OFFSET -40.9854 0 0
          CHANNELS 6 Xposition Yposition Zposition Zrotation Xrotation Yrotation
          JOINT Toes_R
          {
            OFFSET -11.7543 0 0
            CHANNELS 6 Xposition Yposition Zposition Zrotation Xrotation Yrotation
            End Site
            {
              OFFSET 0 0 0
            }
          }
        }
      }
    }
  }
}
MOTION
Frames:	5
Frame Time:	0.0333333
0 0 0 0 0 -0 -180.925 89.6389 -58.5715 82.016 49.2699 4.8641 15.7357 5.1072e-06 -5.51764e-07 68.6406 82.1347 -68.2694 8.98455 -0.406207 -4.3199e-07 6.92905 -5.71291 1.08814 16.3773 -1.3905e-06 -6.99897e-07 4.45383 -18.7766 4.33101 6.45672 -1.25837e-06 -1.02172e-07 -1.32449 -23.7522 7.83762 12.9942 -0.242716 4.98039 -90.3864 1.25506 -87.8881 5.34809 -7.22636e-06 -6.2814e-07 -49.3493 8.75116 -10.3751 24.3286 1.87007e-05 4.90208e-06 -0.693145 -0.864746 -38.6974 22.2916 -9.88446e-07 4.63217e-06 18.2526 5.59519 -11.0595 12.9945 -0.242716 -4.98039 86.7386 10.8513 -88.1594 -5.34813 -1.25947e-06 -3.79883e-06 -60.6298 4.97182 20.186 -24.3289 0.000322201 -8.65921e-06 5.38224 7.41214 -36.147 -22.2915 -0.000108084 -4.47941e-06 5.85364 5.55705 -9.04341 -2.19248 -6.46944 -1.22533e-07 -174.195 -17.7596 -10.7409 39.0811 -6.73843e-06 -1.23785e-05 0.0561012 -0.0487282 39.21 40.9854 -6.48686e-06 -1.26872e-05 -0.558305 -7.68886 -76.4517 11.7543 -2.30144e-07 3.05095e-06 0.0337205 -0.0528927 -17.52 -2.19251 6.46944 -1.45247e-06 178.054 13.1587 150.331 -39.0811 -0.00228153 -0.0401928 0.20735 -0.161111 51.3073 -40.9854 7.72618e-06 5.99936e-06 -8.86272 -8.52119 -55.7795 -11.7543 -5.6619e-06 -5.58687e-06 0.179286 -0.206498 -18.5851 
0 0 0 0 0 -0 -178.734 90.0513 -58.3226 82.1462 50.246 4.10852 15.7357 5.1072e-06 -5.51765e-07 65.6985 82.0961 -65.1034 8.98455 -0.406207 -4.3199e-07 6.70807 -6.49037 1.57068 16.3773 -1.3905e-06 -6.99897e-07 4.49982 -18.9381 4.18219 6.45672 -1.25837e-06 -1.02172e-07 -1.68807 -23.7385 7.72821 12.9942 -0.242716 4.98039 -90.2538 0.828314 -87.9683 5.34809 -7.22636e-06 -6.2814e-07 -47.9447 8.20184 -12.2018 24.3286 1.87007e-05 4.90208e-06 -1.0571 -1.19016 -41.6143 22.2916 -9.88446e-07 4.63217e-06 19.3588 5.59644 -11.1322 12.9945 -0.242716 -4.98039 86.7169 10.4479 -87.4466 -5.34813 -1.25947e-06 -3.79883e-06 -60.5357 4.38792 21.8934 -24.3289 0.000322201 -8.65921e-06 5.44119 7.50007 -36.1265 -22.2915 -0.000108084 -4.47941e-06 5.64198 5.55266 -8.83356 -2.19248 -6.46944 -1.22533e-07 -174.922 -17.9852 -8.6691 39.0811 -6.73843e-06 -1.23785e-05 0.0389342 -0.0294324 36.119 40.9854 -6.48686e-06 -1.26872e-05 0.223249 -6.92732 -75.8525 11.7543 -2.30145e-07 3.05095e-06 0.0456336 -0.0720464 -17.8591 -2.19251 6.46944 -1.45247e-06 -177.632 15.9042 148.096 -39.0811 -0.00228153 -0.0401928 0.133038 -0.129446 45.1479 -40.9854 7.72618e-06 5.99936e-06 -10.6547 -6.39835 -55.5092 -11.7543 -5.6619e-06 -5.58687e-06 0.164834 -0.189302 -18.4198 
0 0 0 0 0 -0 -176.478 90.0839 -58.0661 82.6203 51.666 3.2662 15.7357 5.1072e-06 -5.51765e-07 63.0815 81.9001 -62.2953 8.98455 -0.406207 -4.3199e-07 6.7716 -7.31729 2.00582 16.3773 -1.3905e-06 -6.99897e-07 4.41207 -19.2227 3.98878 6.45672 -1.25837e-06 -1.02172e-07 -2.14082 -23.8892 7.65313 12.9942 -0.242716 4.98039 -90.1572 0.518767 -88.1375 5.34809 -7.22636e-06 -6.2814e-07 -46.6333 7.65876 -13.9675 24.3286 1.87007e-05 4.90208e-06 -1.58549 -1.61203 -44.5329 22.2916 -9.88446e-07 4.63217e-06 20.3711 5.59827 -11.2397 12.9945 -0.242716 -4.98039 86.6624 10.2284 -86.8185 -5.34813 -1.25947e-06 -3.79883e-06 -60.1921 4.00777 23.2481 -24.3289 0.000322201 -8.65921e-06 5.48696 7.56038 -36.1392 -22.2915 -0.000108084 -4.47941e-06 5.58875 5.5541 -8.90104 -2.19248 -6.46944 -1.22534e-07 -175.747 -18.0285 -6.91546 39.0811 -6.73843e-06 -1.23785e-05 0.0296015 -0.0155358 34.1334 40.9854 -6.48686e-06 -1.26872e-05 0.97878 -5.91888 -75.8789 11.7543 -2.30145e-07 3.05095e-06 0.060085 -0.0956314 -18.2744 -2.19251 6.46944 -1.45247e-06 -173.873 18.5638 146.529 -39.0811 -0.00228153 -0.0401928 0.0760707 -0.0972065 37.7765 -40.9854 7.72618e-06 5.99936e-06 -12.185 -3.09771 -54.2315 -11.7543 -5.6619e-06 -5.58687e-06 0.184236 -0.212398 -18.6414 
0 0 0 0 0 -0 -174.116 89.7449 -57.7688 83.3975 53.3695 2.4043 15.7357 5.1072e-06 -5.51765e-07 61.241 81.532 -60.2755 8.98455 -0.406207 -4.3199e-07 7.20537 -8.12416 2.44397 16.3773 -1.3905e-06 -6.99897e-07 4.18748 -19.5755 3.76513 6.45672 -1.25837e-06 -1.02172e-07 -2.85886 -24.1676 7.74208 12.9942 -0.242716 4.98039 -90.0705 0.235342 -88.3391 5.34809 -7.22636e-06 -6.2814e-07 -45.8017 6.82467 -15.6866 24.3286 1.87007e-05 4.90208e-06 -2.09496 -1.9299 -47.3706 22.2916 -9.88446e-07 4.63217e-06 20.9394 5.60147 -11.4306 12.9945 -0.242716 -4.98039 86.593 10.1301 -86.3002 -5.34813 -1.25947e-06 -3.79883e-06 -59.7328 3.82589 24.0678 -24.3289 0.000322201 -8.65921e-06 5.39899 7.42748 -36.1754 -22.2915 -0.000108084 -4.47941e-06 5.53662 5.5518 -8.79104 -2.19248 -6.46944 -1.22534e-07 -176.726 -17.2488 -5.4867 39.0811 -6.73843e-06 -1.23785e-05 0.0257288 -0.00607966 33.4553 40.9854 -6.48686e-06 -1.26872e-05 1.332 -5.37495 -76.5735 11.7543 -2.30145e-07 3.05095e-06 0.0735395 -0.117955 -18.6668 -2.19251 6.46944 -1.45247e-06 -170.904 20.3178 145.443 -39.0811 -0.00228153 -0.0401928 0.0365708 -0.0602794 30.1259 -40.9854 7.72618e-06 5.99936e-06 -12.8732 -0.533953 -52.6729 -11.7543 -5.6619e-06 -5.58687e-06 0.177452 -0.204272 -18.5636 
0 0 0 0 0 -0 -171.64 89.0984 -57.3941 84.2743 55.0325 1.55415 15.7357 5.1072e-06 -5.51765e-07 60.5526 81.1226 -59.3841 8.98455 -0.406207 -4.3199e-07 7.85327 -8.69226 2.93578 16.3773 -1.3905e-06 -6.99897e-07 3.96557 -19.9896 3.59791 6.45672 -1.25837e-06 -1.02172e-07 -3.76145 -24.6807 8.01188 12.9942 -0.242716 4.98039 -90.0169 0.0566709 -88.441 5.34809 -7.22636e-06 -6.2814e-07 -45.3014 6.2859 -17.4075 24.3286 1.87007e-05 4.90208e-06 -2.50937 -2.10792 -49.9968 22.2916 -9.88446e-07 4.63217e-06 21.5613 5.60261 -11.4984 12.9945 -0.242716 -4.98039 86.4887 10.236 -85.9501 -5.34813 -1.25947e-06 -3.79883e-06 -59.1372 3.73985 24.5067 -24.3289 0.000322201 -8.65921e-06 5.41468 7.41701 -36.2941 -22.2915 -0.000108084 -4.47941e-06 5.55377 5.54971 -8.69233 -2.19248 -6.46944 -1.22533e-07 -177.703 -16.1921 -4.30908 39.0811 -6.73843e-06 -1.23785e-05 0.0250581 -8.06459e-06 33.8496 40.9854 -6.48686e-06 -1.26872e-05 1.64121 -5.21842 -77.8817 11.7543 -2.30145e-07 3.05095e-06 0.089445 -0.144762 -19.1343 -2.19251 6.46944 -1.45247e-06 -169.189 20.2784 144.56 -39.0811 -0.00228153 -0.0401928 0.0107009 -0.0352092 23.2662 -40.9854 7.72618e-06 5.99936e-06 -13.7526 -1.06183 -50.6181 -11.7543 -5.6619e-06 -5.58687e-06 0.181705 -0.20938 -18.6126 
